# xmcd
#
# Track frame offsets:
#	207
#	10870
#	24422
#	36220
#	49535
#	59020
#	71752
#	86572
#	100680
#	114522
#	127297
#	138150
#	153235
#	167507
#	179977
#	193332
#	208085
#	220765
#	234775
#	250415
#	264132
#
# Disc length: 3685
#
# Revision: 2
# Processed by: cddbd v1.5.1PL0 Copyright (c) Steve Scherf et al.
# Submitted via: CDex 1.50
# Normalized: r1:DSETVAR1
#
DISCID=2a0e6315
DTITLE=Various Artist - La Vie Parisienne
DYEAR=1989
DGENRE=Jazz
TTITLE0=Maurice Chevalier - Je T'aime D'amour
TTITLE1=Josaphine Baker - C'est Si Facile De Vousaimer
TTITLE2=Charles Trenet - Boum
TTITLE3=Edit Piaf - Il N'est Pas Distingue
TTITLE4=Fernandel - Ignace
TTITLE5=Mistinguett - C'est Vrai
TTITLE6=Jean Sablon - Si Tu M'aimes
TTITLE7=Leo Marjane - En Septembre Sous La Pluie
TTITLE8=Tino Rossi - Ampola
TTITLE9=Hildegarde - Quand Un Vicompte
TTITLE10=Django Reinhardt and Stephane Grappelli - Swing Guitar
TTITLE11=Jean Sablon - Melanchoue
TTITLE12=Mireille - Et Voila, Voila Les Hommes
TTITLE13=Maurice Chevalier - Vous Vales Mieux Qu'un Suorire
TTITLE14=Ray Ventura and his Collegians - La Musiqui Vient Par Ici
TTITLE15=Lucienne Boyer - Chez Moi
TTITLE16=Charles Trenet - Je Chante
TTITLE17=Josaphine Baker - C'est Un Nid Charmant
TTITLE18=Tino Rossi - Berceuse De Jocelyn
TTITLE19=Edit Piaf - La Java De Cezique
TTITLE20=Misinguett - Oh. Que J'aime Paris
EXTD=YEAR: 1989
EXTT0=
EXTT1=
EXTT2=
EXTT3=
EXTT4=
EXTT5=
EXTT6=
EXTT7=
EXTT8=
EXTT9=
EXTT10=
EXTT11=
EXTT12=
EXTT13=
EXTT14=
EXTT15=
EXTT16=
EXTT17=
EXTT18=
EXTT19=
EXTT20=
PLAYORDER=
